<?xml version="1.0" encoding="UTF-8"?>
<svg xmlns="http://www.w3.org/2000/svg" viewBox="0 0 1000 800">
  <!-- Background -->
  <rect width="1000" height="800" fill="#f8f8f8"/>
  
  <!-- Title -->
  <text x="500" y="40" font-family="Arial" font-size="24" font-weight="bold" text-anchor="middle" fill="#333333">KrushiMind App Wireframes with Language Options</text>
  
  <!-- Language Selection Screen -->
  <rect x="40" y="80" width="220" height="400" rx="10" fill="#ffffff" stroke="#cccccc" stroke-width="2"/>
  <rect x="40" y="80" width="220" height="30" rx="10" fill="#f0f0f0" stroke="#cccccc" stroke-width="2"/>
  <text x="150" y="100" font-family="Arial" font-size="16" font-weight="bold" text-anchor="middle" fill="#333333">Welcome Screen</text>
  
  <!-- Logo area -->
  <rect x="90" y="120" width="120" height="120" rx="60" fill="#e6f7e6" stroke="#4caf50" stroke-width="2"/>
  <text x="150" y="190" font-family="Arial" font-size="24" font-weight="bold" text-anchor="middle" fill="#4caf50">рдХреГрд╖рд┐Mind</text>
  
  <!-- Welcome text -->
  <text x="150" y="260" font-family="Arial" font-size="14" font-weight="bold" text-anchor="middle" fill="#333333">Choose Your Language</text>
  <text x="150" y="280" font-family="Arial" font-size="14" font-weight="bold" text-anchor="middle" fill="#333333">рдЕрдкрдиреА рднрд╛рд╖рд╛ рдЪреБрдиреЗрдВ</text>
  
  <!-- Language options -->
  <rect x="70" y="300" width="160" height="30" rx="5" fill="#e8f5e9" stroke="#4caf50" stroke-width="1"/>
  <text x="150" y="320" font-family="Arial" font-size="14" text-anchor="middle" fill="#333333">рд╣рд┐рдВрджреА</text>
  
  <rect x="70" y="340" width="160" height="30" rx="5" fill="#ffffff" stroke="#dddddd" stroke-width="1"/>
  <text x="150" y="360" font-family="Arial" font-size="14" text-anchor="middle" fill="#333333">English</text>
  
  <rect x="70" y="380" width="160" height="30" rx="5" fill="#ffffff" stroke="#dddddd" stroke-width="1"/>
  <text x="150" y="400" font-family="Arial" font-size="14" text-anchor="middle" fill="#333333">ркЧрлБркЬрк░рк╛ркдрлА</text>
  
  <rect x="70" y="420" width="160" height="30" rx="5" fill="#ffffff" stroke="#dddddd" stroke-width="1"/>
  <text x="150" y="440" font-family="Arial" font-size="14" text-anchor="middle" fill="#333333">+ 7 more languages</text>
  
  <!-- Voice Selection Screen -->
  <rect x="290" y="80" width="220" height="400" rx="10" fill="#ffffff" stroke="#cccccc" stroke-width="2"/>
  <rect x="290" y="80" width="220" height="30" rx="10" fill="#f0f0f0" stroke="#cccccc" stroke-width="2"/>
  <text x="400" y="100" font-family="Arial" font-size="16" font-weight="bold" text-anchor="middle" fill="#333333">Voice Interface Setup</text>
  
  <!-- Voice interface diagram -->
  <circle cx="400" cy="150" r="40" fill="#e1f5fe" stroke="#0288d1" stroke-width="2"/>
  <text x="400" y="155" font-family="Arial" font-size="36" font-weight="bold" text-anchor="middle" fill="#0288d1">ЁЯОд</text>
  
  <!-- Voice setup text -->
  <text x="400" y="210" font-family="Arial" font-size="14" font-weight="bold" text-anchor="middle" fill="#333333">Enable Voice Assistant?</text>
  <text x="400" y="230" font-family="Arial" font-size="12" text-anchor="middle" fill="#666666">Works offline in your language</text>
  
  <!-- Dialect selection -->
  <text x="400" y="260" font-family="Arial" font-size="14" font-weight="bold" text-anchor="middle" fill="#333333">Select Your Dialect</text>
  
  <rect x="310" y="280" width="180" height="30" rx="5" fill="#e8f5e9" stroke="#4caf50" stroke-width="1"/>
  <text x="400" y="300" font-family="Arial" font-size="14" text-anchor="middle" fill="#333333">рд╣рд┐рдВрджреА (Eastern UP)</text>
  
  <rect x="310" y="320" width="180" height="30" rx="5" fill="#ffffff" stroke="#dddddd" stroke-width="1"/>
  <text x="400" y="340" font-family="Arial" font-size="14" text-anchor="middle" fill="#333333">рд╣рд┐рдВрджреА (Western UP)</text>
  
  <rect x="310" y="360" width="180" height="30" rx="5" fill="#ffffff" stroke="#dddddd" stroke-width="1"/>
  <text x="400" y="380" font-family="Arial" font-size="14" text-anchor="middle" fill="#333333">рд╣рд┐рдВрджреА (Rajasthan)</text>
  
  <!-- Continue button -->
  <rect x="330" y="420" width="140" height="40" rx="20" fill="#4caf50"/>
  <text x="400" y="445" font-family="Arial" font-size="14" font-weight="bold" text-anchor="middle" fill="#ffffff">Continue</text>
  
  <!-- Home Screen with Language Toggle -->
  <rect x="540" y="80" width="220" height="400" rx="10" fill="#ffffff" stroke="#cccccc" stroke-width="2"/>
  <rect x="540" y="80" width="220" height="30" rx="10" fill="#f0f0f0" stroke="#cccccc" stroke-width="2"/>
  <text x="650" y="100" font-family="Arial" font-size="16" font-weight="bold" text-anchor="middle" fill="#333333">Home Screen</text>
  
  <!-- Status bar -->
  <rect x="550" y="120" width="200" height="20" rx="3" fill="#f0f0f0"/>
  <circle cx="560" cy="130" r="5" fill="#99cc99"/>
  <text x="575" y="134" font-family="Arial" font-size="10" fill="#333333">Offline Mode</text>
  
  <!-- Language toggle -->
  <rect x="680" y="120" width="70" height="20" rx="10" fill="#e8f5e9" stroke="#4caf50" stroke-width="1"/>
  <text x="715" y="134" font-family="Arial" font-size="10" text-anchor="middle" fill="#333333">рд╣рд┐рдВрджреА тЦ╝</text>
  
  <!-- Welcome section -->
  <rect x="550" y="150" width="200" height="60" rx="5" fill="#e6f7e6"/>
  <text x="650" y="175" font-family="Arial" font-size="16" font-weight="bold" text-anchor="middle" fill="#006600">рдирдорд╕реНрддреЗ, рд░рд╛рдо</text>
  <text x="650" y="195" font-family="Arial" font-size="12" text-anchor="middle" fill="#333333">рдЖрдЬ рдЖрдкрдХреА рдлрд╕рд▓ рдХреЗ рд▓рд┐рдП рдореМрд╕рдо рдЕрдЪреНрдЫрд╛ рд╣реИ</text>
  
  <!-- Main menu buttons -->
  <rect x="550" y="220" width="95" height="95" rx="5" fill="#e1f5fe" stroke="#0288d1" stroke-width="1"/>
  <rect x="560" y="235" width="75" height="50" rx="5" fill="#0288d1"/>
  <text x="597" y="295" font-family="Arial" font-size="12" text-anchor="middle" fill="#333333">рдЬреНрдЮрд╛рди рдХреЗрдВрджреНрд░</text>
  
  <rect x="655" y="220" width="95" height="95" rx="5" fill="#fff3e0" stroke="#ff9800" stroke-width="1"/>
  <rect x="665" y="235" width="75" height="50" rx="5" fill="#ff9800"/>
  <text x="702" y="295" font-family="Arial" font-size="12" text-anchor="middle" fill="#333333">рдмрд╛рдЬрд╝рд╛рд░</text>
  
  <rect x="550" y="325" width="95" height="95" rx="5" fill="#f3e5f5" stroke="#9c27b0" stroke-width="1"/>
  <rect x="560" y="340" width="75" height="50" rx="5" fill="#9c27b0"/>
  <text x="597" y="400" font-family="Arial" font-size="12" text-anchor="middle" fill="#333333">рд╡рд┐рддреНрдд</text>
  
  <rect x="655" y="325" width="95" height="95" rx="5" fill="#e8f5e9" stroke="#4caf50" stroke-width="1"/>
  <rect x="665" y="340" width="75" height="50" rx="5" fill="#4caf50"/>
  <text x="702" y="400" font-family="Arial" font-size="12" text-anchor="middle" fill="#333333">рд╕рдореБрджрд╛рдп</text>
  
  <!-- Voice assistant indicator -->
  <circle cx="650" cy="440" r="15" fill="#e1f5fe" stroke="#0288d1" stroke-width="1"/>
  <text x="650" y="445" font-family="Arial" font-size="12" font-weight="bold" text-anchor="middle" fill="#0288d1">ЁЯОд</text>
  
  <!-- Language Selection Dropdown -->
  <rect x="790" y="80" width="220" height="400" rx="10" fill="#ffffff" stroke="#cccccc" stroke-width="2"/>
  <rect x="790" y="80" width="220" height="30" rx="10" fill="#f0f0f0" stroke="#cccccc" stroke-width="2"/>
  <text x="900" y="100" font-family="Arial" font-size="16" font-weight="bold" text-anchor="middle" fill="#333333">Language Selection</text>
  
  <!-- Dropdown panel -->
  <rect x="800" y="120" width="200" height="350" rx="5" fill="#ffffff" stroke="#dddddd" stroke-width="1"/>
  
  <text x="900" y="145" font-family="Arial" font-size="16" font-weight="bold" text-anchor="middle" fill="#333333">Choose Language</text>
  <text x="900" y="165" font-family="Arial" font-size="12" text-anchor="middle" fill="#666666">All app content will change</text>
  
  <!-- Language list -->
  <rect x="810" y="180" width="180" height="35" rx="5" fill="#e8f5e9" stroke="#4caf50" stroke-width="1"/>
  <text x="830" y="202" font-family="Arial" font-size="14" fill="#333333">рд╣рд┐рдВрджреА</text>
  <text x="970" y="202" font-family="Arial" font-size="12" text-anchor="end" fill="#333333">тЬУ</text>
  
  <rect x="810" y="225" width="180" height="35" rx="5" fill="#ffffff" stroke="#dddddd" stroke-width="1"/>
  <text x="830" y="247" font-family="Arial" font-size="14" fill="#333333">English</text>
  
  <rect x="810" y="270" width="180" height="35" rx="5" fill="#ffffff" stroke="#dddddd" stroke-width="1"/>
  <text x="830" y="292" font-family="Arial" font-size="14" fill="#333333">ркЧрлБркЬрк░рк╛ркдрлА</text>
  
  <rect x="810" y="315" width="180" height="35" rx="5" fill="#ffffff" stroke="#dddddd" stroke-width="1"/>
  <text x="830" y="337" font-family="Arial" font-size="14" fill="#333333">рдорд░рд╛рдареА</text>
  
  <rect x="810" y="360" width="180" height="35" rx="5" fill="#ffffff" stroke="#dddddd" stroke-width="1"/>
  <text x="830" y="382" font-family="Arial" font-size="14" fill="#333333">ржмрж╛ржВрж▓рж╛</text>
  
  <rect x="810" y="405" width="180" height="35" rx="5" fill="#ffffff" stroke="#dddddd" stroke-width="1"/>
  <text x="830" y="427" font-family="Arial" font-size="14" fill="#333333">рикрй░риЬри╛римрйА</text>
  
  <!-- Multi-language Knowledge Hub -->
  <rect x="290" y="500" width="220" height="280" rx="10" fill="#ffffff" stroke="#cccccc" stroke-width="2"/>
  <rect x="290" y="500" width="220" height="30" rx="10" fill="#e1f5fe" stroke="#0288d1" stroke-width="2"/>
  <text x="400" y="520" font-family="Arial" font-size="16" font-weight="bold" text-anchor="middle" fill="#333333">Hindi Interface</text>
  
  <!-- Knowledge Hub content in Hindi -->
  <rect x="300" y="540" width="200" height="60" rx="5" fill="#e1f5fe" stroke="#0288d1" stroke-width="1"/>
  <text x="400" y="560" font-family="Arial" font-size="14" font-weight="bold" text-anchor="middle" fill="#333333">рдлрд╕рд▓ рд╕реНрд╡рд╛рд╕реНрдереНрдп рдЬрд╛рдВрдЪ</text>
  <rect x="320" y="570" width="160" height="20" rx="10" fill="#0288d1"/>
  <text x="400" y="585" font-family="Arial" font-size="12" text-anchor="middle" fill="#ffffff">рддрд╕реНрд╡реАрд░ рд▓реЗрдВ</text>
  
  <rect x="300" y="610" width="200" height="60" rx="5" fill="#f1f8e9" stroke="#7cb342" stroke-width="1"/>
  <text x="400" y="630" font-family="Arial" font-size="14" font-weight="bold" text-anchor="middle" fill="#333333">рдореМрд╕рдо рдХреА рдЬрд╛рдирдХрд╛рд░реА</text>
  <text x="400" y="650" font-family="Arial" font-size="12" text-anchor="middle" fill="#333333">рдЖрдЬ: 28┬░ рд╕рд╛рдорд╛рдиреНрдп рдмрд╛рд░рд┐рд╢</text>
  
  <rect x="300" y="680" width="200" height="60" rx="5" fill="#ffebee" stroke="#e57373" stroke-width="1"/>
  <text x="400" y="700" font-family="Arial" font-size="14" font-weight="bold" text-anchor="middle" fill="#333333">рдХреАрдЯ рдЪреЗрддрд╛рд╡рдиреА</text>
  <text x="400" y="720" font-family="Arial" font-size="12" text-anchor="middle" fill="#333333">рдЖрдкрдХреЗ рдХреНрд╖реЗрддреНрд░ рдореЗрдВ рдмреНрд░рд╛рдЙрди рдкреНрд▓рд╛рдВрдЯ рд╣реЙрдкрд░</text>
  
  <!-- Multi-language version - English -->
  <rect x="40" y="500" width="220" height="280" rx="10" fill="#ffffff" stroke="#cccccc" stroke-width="2"/>
  <rect x="40" y="500" width="220" height="30" rx="10" fill="#e1f5fe" stroke="#0288d1" stroke-width="2"/>
  <text x="150" y="520" font-family="Arial" font-size="16" font-weight="bold" text-anchor="middle" fill="#333333">English Interface</text>
  
  <!-- Knowledge Hub content in English -->
  <rect x="50" y="540" width="200" height="60" rx="5" fill="#e1f5fe" stroke="#0288d1" stroke-width="1"/>
  <text x="150" y="560" font-family="Arial" font-size="14" font-weight="bold" text-anchor="middle" fill="#333333">Crop Health Check</text>
  <rect x="70" y="570" width="160" height="20" rx="10" fill="#0288d1"/>
  <text x="150" y="585" font-family="Arial" font-size="12" text-anchor="middle" fill="#ffffff">Take Photo</text>
  
  <rect x="50" y="610" width="200" height="60" rx="5" fill="#f1f8e9" stroke="#7cb342" stroke-width="1"/>
  <text x="150" y="630" font-family="Arial" font-size="14" font-weight="bold" text-anchor="middle" fill="#333333">Weather Information</text>
  <text x="150" y="650" font-family="Arial" font-size="12" text-anchor="middle" fill="#333333">Today: 28┬░ Light Rain</text>
  
  <rect x="50" y="680" width="200" height="60" rx="5" fill="#ffebee" stroke="#e57373" stroke-width="1"/>
  <text x="150" y="700" font-family="Arial" font-size="14" font-weight="bold" text-anchor="middle" fill="#333333">Pest Alert</text>
  <text x="150" y="720" font-family="Arial" font-size="12" text-anchor="middle" fill="#333333">Brown Plant Hopper in your area</text>
  
  <!-- Multi-language version - Gujarati -->
  <rect x="540" y="500" width="220" height="280" rx="10" fill="#ffffff" stroke="#cccccc" stroke-width="2"/>
  <rect x="540" y="500" width="220" height="30" rx="10" fill="#e1f5fe" stroke="#0288d1" stroke-width="2"/>
  <text x="650" y="520" font-family="Arial" font-size="16" font-weight="bold" text-anchor="middle" fill="#333333">Gujarati Interface</text>
  
  <!-- Knowledge Hub content in Gujarati -->
  <rect x="550" y="540" width="200" height="60" rx="5" fill="#e1f5fe" stroke="#0288d1" stroke-width="1"/>
  <text x="650" y="560" font-family="Arial" font-size="14" font-weight="bold" text-anchor="middle" fill="#333333">рккрк╛ркХ рк╕рлНрк╡рк╛рк╕рлНркерлНркп ркдрккрк╛рк╕</text>
  <rect x="570" y="570" width="160" height="20" rx="10" fill="#0288d1"/>
  <text x="650" y="585" font-family="Arial" font-size="12" text-anchor="middle" fill="#ffffff">рклрлЛркЯрлЛ рк▓рлЛ</text>
  
  <rect x="550" y="610" width="200" height="60" rx="5" fill="#f1f8e9" stroke="#7cb342" stroke-width="1"/>
  <text x="650" y="630" font-family="Arial" font-size="14" font-weight="bold" text-anchor="middle" fill="#333333">рк╣рк╡рк╛ркорк╛рки ркорк╛рк╣рк┐ркдрлА</text>
  <text x="650" y="650" font-family="Arial" font-size="12" text-anchor="middle" fill="#333333">ркЖркЬрлЗ: 28┬░ рк╣рк│рк╡рлЛ рк╡рк░рк╕рк╛ркж</text>
  
  <rect x="550" y="680" width="200" height="60" rx="5" fill="#ffebee" stroke="#e57373" stroke-width="1"/>
  <text x="650" y="700" font-family="Arial" font-size="14" font-weight="bold" text-anchor="middle" fill="#333333">ркЬрлАрк╡рк╛ркд ркЪрлЗркдрк╡ркгрлА</text>
  <text x="650" y="720" font-family="Arial" font-size="12" text-anchor="middle" fill="#333333">ркдркорк╛рк░рк╛ рк╡рк┐рк╕рлНркдрк╛рк░ркорк╛ркВ ркмрлНрк░рк╛ркЙрки рккрлНрк▓рк╛ркирлНркЯ рк╣рлЛрккрк░</text>
  
  <!-- Voice Assistant Interface -->
  <rect x="790" y="500" width="220" height="280" rx="10" fill="#ffffff" stroke="#cccccc" stroke-width="2"/>
  <rect x="790" y="500" width="220" height="30" rx="10" fill="#e1f5fe" stroke="#0288d1" stroke-width="2"/>
  <text x="900" y="520" font-family="Arial" font-size="16" font-weight="bold" text-anchor="middle" fill="#333333">Voice Assistant</text>
  
  <!-- Voice interface visualization -->
  <circle cx="900" cy="570" r="40" fill="#e1f5fe" stroke="#0288d1" stroke-width="2"/>
  <text x="900" y="575" font-family="Arial" font-size="36" font-weight="bold" text-anchor="middle" fill="#0288d1">ЁЯОд</text>
  
  <!-- Voice waves -->
  <path d="M840 570 Q855 550 870 570 Q885 590 900 570 Q915 550 930 570 Q945 590 960 570" fill="none" stroke="#0288d1" stroke-width="2"/>
  
  <!-- Voice assistant dialog -->
  <rect x="800" y="620" width="200" height="70" rx="10" fill="#e8f5e9" stroke="#4caf50" stroke-width="1"/>
  <text x="810" y="640" font-family="Arial" font-size="12" fill="#333333">"рдореЗрд░реА рдзрд╛рди рдореЗрдВ рдХреАрдЯ рд╣реИ"</text>
  <text x="810" y="660" font-family="Arial" font-size="12" font-weight="bold" fill="#333333">Response:</text>
  <text x="810" y="680" font-family="Arial" font-size="12" fill="#333333">"рдХреНрдпрд╛ рдпрд╣ рдмреНрд░рд╛рдЙрди рдкреНрд▓рд╛рдВрдЯ рд╣реЙрдкрд░ рд╣реИ?"</text>
  
  <!-- Works offline note -->
  <rect x="800" y="700" width="200" height="70" rx="5" fill="#f5f5f5" stroke="#dddddd" stroke-width="1"/>
  <text x="900" y="720" font-family="Arial" font-size="12" font-weight="bold" text-anchor="middle" fill="#333333">Voice Features:</text>
  <text x="900" y="740" font-family="Arial" font-size="12" text-anchor="middle" fill="#333333">тАв Works 100% offline</text>
  <text x="900" y="760" font-family="Arial" font-size="12" text-anchor="middle" fill="#333333">тАв 10+ regional languages</text>
</svg> 